<?xml version="1.0" encoding="UTF-8"?>
<svg id="Layer_1" data-name="Layer 1" xmlns="http://www.w3.org/2000/svg" viewBox="0 0 158.9 183.87">
  <defs>
    <style>
      .cls-1 {
        fill: #fbae17;
      }

      .cls-2 {
        fill: #93d1f2;
      }

      .cls-3 {
        fill: #0298ec;
      }

      .cls-4 {
        fill: #0160a4;
      }

      .cls-5 {
        fill: #01487b;
      }

      .cls-6 {
        fill: #fff;
      }
    </style>
  </defs>
  <g>
    <polygon class="cls-5" points="13.73 168.65 41.18 168.65 54.91 145.64 41.18 122.64 13.73 122.64 0 145.64 13.73 168.65"/>
    <polygon class="cls-1" points="43.81 183.87 136.09 183.87 158.9 145.64 136.09 107.42 43.81 107.42 21 145.64 43.81 183.87"/>
    <rect class="cls-5" x="51.72" y="121.42" width="76.45" height="48.44" transform="translate(-55.69 235.59) rotate(-90)"/>
  </g>
  <g>
    <polygon class="cls-4" points="89.95 36.04 21 13.28 21 84.33 89.95 107.1 47.78 77.71 89.95 36.04"/>
    <polygon class="cls-3" points="59.17 71.05 89.95 36.04 35.28 6.66 35.28 77.71 89.95 107.1 59.17 71.05"/>
    <polygon class="cls-2" points="52.12 0 52.12 71.05 89.95 107.1 89.95 36.04 52.12 0"/>
    <polygon class="cls-4" points="89.95 36.04 132.12 77.71 89.95 107.1 158.9 84.33 158.9 13.28 89.95 36.04"/>
    <polygon class="cls-3" points="89.95 36.04 120.73 71.05 89.95 107.1 144.61 77.71 144.61 6.66 89.95 36.04"/>
    <polygon class="cls-6" points="89.95 36.04 89.95 107.1 127.78 71.05 127.78 0 89.95 36.04"/>
  </g>
</svg>