<?xml version="1.0" encoding="UTF-8"?>
<svg id="art" xmlns="http://www.w3.org/2000/svg" viewBox="0 0 142.01 142.01">
  <defs>
    <style>
      .cls-1 {
        fill: none;
        stroke: #fff;
        stroke-miterlimit: 10;
        stroke-width: 2px;
      }

      .cls-2 {
        fill: #fff;
        stroke-width: 0px;
      }
    </style>
  </defs>
  <g>
    <path class="cls-1" d="M65.4,135.92c-30.02-2.56-54.24-25.48-58.78-54.89"/>
    <polygon class="cls-2" points="13.9 82.41 5.85 71.01 0 83.68 13.9 82.41"/>
  </g>
  <g>
    <path class="cls-1" d="M135.87,77.16c-2.79,29.77-25.61,53.72-54.85,58.24"/>
    <polygon class="cls-2" points="82.41 128.11 71 136.16 83.68 142.01 82.41 128.11"/>
  </g>
  <g>
    <path class="cls-1" d="M77.67,6.19c29.54,3,53.24,25.73,57.73,54.8"/>
    <polygon class="cls-2" points="128.11 59.6 136.16 71.01 142.01 58.33 128.11 59.6"/>
  </g>
  <g>
    <path class="cls-1" d="M6.13,64.98C8.86,35.15,31.71,11.14,60.98,6.62"/>
    <polygon class="cls-2" points="59.6 13.9 71 5.85 58.33 0 59.6 13.9"/>
  </g>
</svg>