<?xml version="1.0" encoding="UTF-8"?>
<svg id="art" xmlns="http://www.w3.org/2000/svg" viewBox="0 0 155.78 141.91">
  <defs>
    <style>
      .cls-1 {
        fill: #93d1f2;
      }

      .cls-1, .cls-2, .cls-3, .cls-4, .cls-5, .cls-6 {
        stroke-width: 0px;
      }

      .cls-2 {
        fill: #0160a4;
      }

      .cls-3 {
        fill: #0298ec;
      }

      .cls-4 {
        fill: #fbae17;
      }

      .cls-5 {
        fill: #0278cd;
      }

      .cls-6 {
        fill: #01487b;
      }
    </style>
  </defs>
  <rect class="cls-6" width="155.78" height="141.91"/>
  <g>
    <g>
      <rect class="cls-2" x="35.57" y="43.73" width="84.64" height="63.44"/>
      <rect class="cls-3" x="29.81" y="30.57" width="96.17" height="24.48"/>
      <rect class="cls-3" x="29.81" y="63.21" width="96.17" height="24.48"/>
      <rect class="cls-3" x="29.81" y="95.84" width="96.17" height="24.48"/>
      <polygon class="cls-6" points="57.03 45.14 57.03 40.49 53 38.16 48.97 40.49 48.97 45.14 53 47.47 57.03 45.14"/>
      <polygon class="cls-2" points="68.57 45.14 68.57 40.49 64.54 38.16 60.51 40.49 60.51 45.14 64.54 47.47 68.57 45.14"/>
      <rect class="cls-1" x="84.12" y="38.82" width="33.46" height="8"/>
      <polygon class="cls-6" points="45.49 77.77 45.49 73.12 41.46 70.8 37.43 73.12 37.43 77.77 41.46 80.1 45.49 77.77"/>
      <polygon class="cls-2" points="57.03 77.77 57.03 73.12 53 70.8 48.97 73.12 48.97 77.77 53 80.1 57.03 77.77"/>
      <polygon class="cls-2" points="68.57 77.77 68.57 73.12 64.54 70.8 60.51 73.12 60.51 77.77 64.54 80.1 68.57 77.77"/>
      <rect class="cls-1" x="84.12" y="71.45" width="33.46" height="8"/>
      <polygon class="cls-2" points="45.49 110.41 45.49 105.76 41.46 103.43 37.43 105.76 37.43 110.41 41.46 112.73 45.49 110.41"/>
      <polygon class="cls-5" points="57.03 110.41 57.03 105.76 53 103.43 48.97 105.76 48.97 110.41 53 112.73 57.03 110.41"/>
      <polygon class="cls-6" points="68.57 110.41 68.57 105.76 64.54 103.43 60.51 105.76 60.51 110.41 64.54 112.73 68.57 110.41"/>
      <rect class="cls-1" x="84.12" y="104.08" width="33.46" height="8"/>
    </g>
    <g>
      <polygon class="cls-4" points="54.07 33.46 35.87 14.58 42.9 7.29 61.1 26.16 54.07 33.46"/>
      <polygon class="cls-2" points="16.75 58.46 11.69 53.21 17.4 47.29 22.46 52.54 16.75 58.46"/>
      <polygon class="cls-4" points="16.28 62.36 7.94 53.71 10.05 51.51 18.39 60.16 16.28 62.36"/>
      <polygon class="cls-2" points="39.59 37.36 43.94 38.49 51.43 30.72 38.51 17.32 27.25 28.99 37.08 39.19 39.59 37.36"/>
      <polygon class="cls-5" points="37.37 39.49 34.82 36.85 29.17 30.99 15.31 45.37 24.38 54.78 35.26 43.5 35.55 42.37 37.37 39.49"/>
      <path class="cls-4" d="M38.93,36.32l-1.26,1.31-1.92,1.99-1.43,1.48.69,2.66,1,3.87,6.3,1.75,4.62-4.79-1.69-6.54-.7-.19-5.61-1.56M41.45,46.1l-3.13-.87-.84-3.24,2.29-2.38,3.13.87.84,3.24-2.29,2.38Z"/>
    </g>
  </g>
</svg>