<?xml version="1.0" encoding="UTF-8"?>
<svg id="art" xmlns="http://www.w3.org/2000/svg" viewBox="0 0 155.78 141.91">
  <defs>
    <style>
      .cls-1 {
        fill: #93d1f2;
      }

      .cls-1, .cls-2, .cls-3, .cls-4 {
        stroke-width: 0px;
      }

      .cls-2 {
        fill: #0160a4;
      }

      .cls-3 {
        fill: #0298ec;
      }

      .cls-4 {
        fill: #01487b;
      }
    </style>
  </defs>
  <rect class="cls-4" width="155.78" height="141.91"/>
  <g>
    <g>
      <g>
        <rect class="cls-2" x="73.89" y="19.1" width="8" height="103.65"/>
        <rect class="cls-2" x="54.41" y="19.1" width="8" height="103.65"/>
        <rect class="cls-2" x="93.38" y="19.1" width="8" height="103.65"/>
        <rect class="cls-2" x="26.06" y="66.92" width="103.65" height="8"/>
        <rect class="cls-2" x="26.06" y="86.41" width="103.65" height="8"/>
        <rect class="cls-2" x="26.06" y="47.44" width="103.65" height="8"/>
      </g>
      <rect class="cls-3" x="35.85" y="28.89" width="84.07" height="84.07"/>
    </g>
    <g>
      <polygon class="cls-1" points="55.01 62.45 47.01 62.45 47.01 40.04 69.42 40.04 69.42 48.04 55.01 48.04 55.01 62.45"/>
      <polygon class="cls-1" points="69.42 101.81 47.01 101.81 47.01 79.39 55.01 79.39 55.01 93.81 69.42 93.81 69.42 101.81"/>
      <polygon class="cls-1" points="108.78 101.81 86.36 101.81 86.36 93.81 100.78 93.81 100.78 79.39 108.78 79.39 108.78 101.81"/>
      <polygon class="cls-1" points="108.78 62.45 100.78 62.45 100.78 48.04 86.36 48.04 86.36 40.04 108.78 40.04 108.78 62.45"/>
    </g>
  </g>
</svg>