<?xml version="1.0" encoding="UTF-8"?>
<svg id="art" xmlns="http://www.w3.org/2000/svg" viewBox="0 0 155.78 141.91">
  <defs>
    <style>
      .cls-1, .cls-2, .cls-3, .cls-4 {
        fill-rule: evenodd;
      }

      .cls-1, .cls-2, .cls-3, .cls-4, .cls-5, .cls-6, .cls-7, .cls-8 {
        stroke-width: 0px;
      }

      .cls-1, .cls-7 {
        fill: #0278cd;
      }

      .cls-2, .cls-5 {
        fill: #93d1f2;
      }

      .cls-3 {
        fill: #fbae17;
      }

      .cls-4 {
        fill: #0160a4;
      }

      .cls-6 {
        fill: #0298ec;
      }

      .cls-8 {
        fill: #01487b;
      }
    </style>
  </defs>
  <rect class="cls-8" width="155.78" height="141.91"/>
  <g>
    <g>
      <rect class="cls-5" x="18.69" y="27.74" width="118.4" height="85.09"/>
      <polygon class="cls-6" points="138.09 46.95 17.69 47.96 17.69 27.74 138.09 26.74 138.09 46.95"/>
      <g>
        <polygon class="cls-1" points="41.99 70.66 43.23 67.68 42.09 61.43 45 58.51 47.91 55.6 54.17 56.74 57.15 55.51 60.76 50.28 64.88 50.28 69 50.28 72.62 55.51 75.59 56.74 81.85 55.6 84.76 58.51 87.68 61.43 86.53 67.68 87.77 70.66 93 74.27 93 78.39 93 82.52 87.77 86.13 86.53 89.11 87.68 95.36 84.76 98.27 81.85 101.19 75.59 100.05 72.62 101.28 69 106.51 64.88 106.51 60.76 106.51 57.15 101.28 54.17 100.05 47.91 101.19 45 98.27 42.09 95.36 43.23 89.11 41.99 86.13 36.77 82.52 36.77 78.39 36.77 74.27 41.99 70.66"/>
        <polygon class="cls-2" points="54.61 72.46 54.61 84.33 64.88 90.26 75.16 84.33 75.16 72.46 64.88 66.53 54.61 72.46"/>
      </g>
      <g>
        <polygon class="cls-4" points="119.5 60.31 118.76 62.07 119.44 65.78 117.71 67.51 115.99 69.23 112.28 68.56 110.52 69.29 108.38 72.38 105.94 72.38 103.5 72.38 101.35 69.29 99.59 68.56 95.89 69.23 94.16 67.51 92.43 65.78 93.11 62.07 92.38 60.31 89.28 58.17 89.28 55.73 89.28 53.29 92.38 51.14 93.11 49.38 92.43 45.68 94.16 43.95 95.89 42.22 99.59 42.9 101.35 42.17 103.5 39.07 105.94 39.07 108.38 39.07 110.52 42.17 112.28 42.9 115.99 42.22 117.71 43.95 119.44 45.68 118.76 49.38 119.5 51.14 122.59 53.29 122.59 55.73 122.59 58.17 119.5 60.31"/>
        <polygon class="cls-3" points="112.02 59.24 112.02 52.21 105.94 48.7 99.85 52.21 99.85 59.24 105.94 62.76 112.02 59.24"/>
      </g>
    </g>
    <rect class="cls-7" x="23.64" y="33.77" width="40.75" height="8"/>
  </g>
</svg>