<?xml version="1.0" encoding="UTF-8"?>
<svg id="art" xmlns="http://www.w3.org/2000/svg" viewBox="0 0 155.78 141.91">
  <defs>
    <style>
      .cls-1 {
        fill: #93d1f2;
      }

      .cls-1, .cls-2, .cls-3, .cls-4, .cls-5, .cls-6 {
        stroke-width: 0px;
      }

      .cls-2 {
        fill: #0160a4;
      }

      .cls-3 {
        fill: #0298ec;
      }

      .cls-4 {
        fill: #fff;
      }

      .cls-5 {
        fill: #0278cd;
      }

      .cls-6 {
        fill: #01487b;
      }
    </style>
  </defs>
  <rect class="cls-6" width="155.78" height="141.91"/>
  <g>
    <g>
      <rect class="cls-2" x="35.51" y="40.67" width="84.7" height="63.49"/>
      <rect class="cls-3" x="29.74" y="27.51" width="96.23" height="24.5"/>
      <rect class="cls-3" x="29.74" y="60.17" width="96.23" height="24.5"/>
      <rect class="cls-3" x="29.74" y="92.82" width="96.23" height="24.5"/>
      <polygon class="cls-2" points="56.98 42.09 56.98 37.43 52.95 35.11 48.92 37.43 48.92 42.09 52.95 44.41 56.98 42.09"/>
      <polygon class="cls-5" points="68.53 42.09 68.53 37.43 64.5 35.11 60.47 37.43 60.47 42.09 64.5 44.41 68.53 42.09"/>
      <rect class="cls-1" x="84.09" y="35.76" width="33.49" height="8"/>
      <polygon class="cls-2" points="45.44 74.74 45.44 70.09 41.41 67.76 37.38 70.09 37.38 74.74 41.41 77.07 45.44 74.74"/>
      <polygon class="cls-2" points="56.98 74.74 56.98 70.09 52.95 67.76 48.92 70.09 48.92 74.74 52.95 77.07 56.98 74.74"/>
      <polygon class="cls-6" points="68.53 74.74 68.53 70.09 64.5 67.76 60.47 70.09 60.47 74.74 64.5 77.07 68.53 74.74"/>
      <rect class="cls-1" x="84.09" y="68.42" width="33.49" height="8"/>
      <polygon class="cls-6" points="45.44 107.4 45.44 102.75 41.41 100.42 37.38 102.75 37.38 107.4 41.41 109.73 45.44 107.4"/>
      <polygon class="cls-5" points="56.98 107.4 56.98 102.75 52.95 100.42 48.92 102.75 48.92 107.4 52.95 109.73 56.98 107.4"/>
      <polygon class="cls-2" points="68.53 107.4 68.53 102.75 64.5 100.42 60.47 102.75 60.47 107.4 64.5 109.73 68.53 107.4"/>
      <rect class="cls-1" x="84.09" y="101.07" width="33.49" height="8"/>
    </g>
    <g>
      <polygon class="cls-5" points="50.98 52.02 50.98 27.5 29.74 15.24 8.51 27.5 8.51 52.02 29.74 64.28 50.98 52.02"/>
      <g>
        <path class="cls-4" d="M36.98,42.41h-1.68c-.25,0-.51.04-.74.15-.21.07-.4.18-.56.32v-2.66h-.68v8.25h.71v-3.8c0-.43.17-.84.47-1.14.3-.3.7-.46,1.12-.47h1c.42,0,.82.17,1.12.47.3.3.47.71.47,1.14v3.78h.71v-4.1c0-.52-.21-1.02-.59-1.37-.35-.38-.84-.58-1.36-.56Z"/>
        <path class="cls-4" d="M28.87,44.49l2.38,4.16-2.38,4.16h-4.72l-2.37-4.16,2.37-4.16h4.72Z"/>
        <path class="cls-4" d="M28.87,34.45l2.38,4.16-2.38,4.16h-4.72l-2.37-4.16,2.37-4.16h4.72Z"/>
        <path class="cls-4" d="M20.51,40.19l1.94,3.44-1.94,3.45h-3.86l-1.94-3.45,1.94-3.44h3.86Z"/>
        <path class="cls-4" d="M39.15,26.7l3.07,5.45-3.07,5.46h-6.17l-3.07-5.46,3.07-5.45h6.17Z"/>
      </g>
    </g>
  </g>
</svg>