<?xml version="1.0" encoding="UTF-8"?>
<svg id="art" xmlns="http://www.w3.org/2000/svg" viewBox="0 0 155.78 141.91">
  <defs>
    <style>
      .cls-1 {
        fill: #93d1f2;
      }

      .cls-1, .cls-2, .cls-3, .cls-4, .cls-5 {
        stroke-width: 0px;
      }

      .cls-2 {
        fill: #0160a4;
      }

      .cls-3 {
        fill: #0298ec;
      }

      .cls-4 {
        fill: #fff;
      }

      .cls-5 {
        fill: #01487b;
      }
    </style>
  </defs>
  <rect class="cls-5" width="155.78" height="141.91"/>
  <g>
    <polygon class="cls-2" points="41.84 41.08 18.94 36.62 18.94 97.36 77.89 116.83 41.84 91.7 41.84 41.08"/>
    <polygon class="cls-3" points="51.58 86 77.89 56.07 31.15 30.96 31.15 91.7 77.89 116.83 51.58 86"/>
    <polygon class="cls-1" points="45.55 25.26 45.55 86 77.89 116.83 77.89 56.07 45.55 25.26"/>
    <polygon class="cls-2" points="113.95 41.08 113.95 91.7 77.89 116.83 136.84 97.36 136.84 36.62 113.95 41.08"/>
    <polygon class="cls-3" points="77.89 56.07 104.21 86 77.89 116.83 124.63 91.7 124.63 30.96 77.89 56.07"/>
    <polygon class="cls-4" points="77.89 56.07 77.89 116.83 110.24 86 110.24 25.26 77.89 56.07"/>
  </g>
</svg>