<?xml version="1.0" encoding="UTF-8"?>
<svg id="art" xmlns="http://www.w3.org/2000/svg" viewBox="0 0 155.78 141.91">
  <defs>
    <style>
      .cls-1 {
        fill: #93d1f2;
      }

      .cls-1, .cls-2, .cls-3, .cls-4, .cls-5, .cls-6 {
        stroke-width: 0px;
      }

      .cls-2 {
        fill: #0160a4;
      }

      .cls-3 {
        fill: #0298ec;
      }

      .cls-4 {
        fill: #fbae17;
      }

      .cls-5 {
        fill: #0278cd;
      }

      .cls-6 {
        fill: #01487b;
      }
    </style>
  </defs>
  <rect class="cls-6" width="155.78" height="141.91"/>
  <g>
    <g>
      <polygon class="cls-3" points="59.06 40.81 51.12 39.85 53.41 20.89 102.35 20.89 104.66 38.88 96.73 39.91 95.31 28.89 60.5 28.89 59.06 40.81"/>
      <rect class="cls-5" x="22.67" y="38.46" width="110.44" height="79.37"/>
    </g>
    <g>
      <g>
        <path class="cls-1" d="M90.43,93.82l6.24,6.42s1.33-4.52-1.97-7.91c-3.29-3.39-8.1-2.44-9.13-1.74l-19.13-19.7s2.65-4.93-1.34-9.04c-3.56-3.66-7.99-2.33-7.99-2.33l6.24,6.42-5.72,5.56-6.24-6.41s-1.59,4.25,1.97,7.91c3.56,3.66,7.94,2.28,9.15,1.74l19.11,19.7s-2.63,4.95,1.48,9.18c3.46,3.56,7.86,2.19,7.86,2.19l-6.28-6.46,5.77-5.51Z"/>
        <rect class="cls-5" x="68.88" y="75.21" width="8.26" height="13.53" transform="translate(-36.45 73.7) rotate(-43.99)"/>
      </g>
      <g>
        <rect class="cls-3" x="99.72" y="68.38" width="8.77" height="5.65" transform="translate(-18.76 99.68) rotate(-47.42)"/>
        <polygon class="cls-3" points="87.64 72.55 95.09 68.48 99.71 71.81 104.3 66.82 102.13 63.84 102.11 61.94 90.56 51.27 75.34 56.05 74.64 58.45 76.75 59.59 85.56 57.94 87.22 60.33 82.43 67.76 87.64 72.55"/>
        <rect class="cls-4" x="77.34" y="68.39" width="9.22" height="9.29" transform="translate(75.65 -36.55) rotate(45)"/>
        <polygon class="cls-2" points="55 104.75 50.23 99.98 75.5 72.97 82.02 79.49 55 104.75"/>
      </g>
    </g>
  </g>
</svg>