<?xml version="1.0" encoding="UTF-8"?>
<svg id="art" xmlns="http://www.w3.org/2000/svg" viewBox="0 0 155.78 141.91">
  <defs>
    <style>
      .cls-1 {
        fill: #93d1f2;
      }

      .cls-1, .cls-2, .cls-3 {
        stroke-width: 0px;
      }

      .cls-2 {
        fill: #0088df;
      }

      .cls-3 {
        fill: #01487b;
      }
    </style>
  </defs>
  <rect class="cls-3" width="155.78" height="141.91"/>
  <g>
    <polygon class="cls-2" points="43.96 118.24 31.78 111.49 33.99 81.87 27.32 70.69 34.52 62.09 31.76 29.56 43.84 22.31 47.96 29.17 40.16 33.86 42.77 64.7 37.1 71.46 42.15 79.94 40.14 106.97 47.84 111.24 43.96 118.24"/>
    <polygon class="cls-2" points="113.1 118.17 108.98 111.31 116.71 106.68 113.22 76.9 119.07 69.07 113.86 59.53 115.87 33.51 108.17 29.24 112.05 22.25 124.24 29 122.02 57.78 128.55 69.75 121.53 79.14 125.26 110.88 113.1 118.17"/>
    <rect class="cls-1" x="56.86" y="54.19" width="42.3" height="10.77"/>
    <rect class="cls-1" x="56.86" y="75.52" width="42.3" height="10.77"/>
  </g>
</svg>